PathFileType  4	(X/Y/Z) C:\Users\antoi\Documents\MyRepositories\mobilecap\ResultsAnalysis
DataRate	CameraRate	NumFrames	NumMarkers	Units	OrigDataRate	OrigDataStartFrame	OrigNumFrames
100.0	100.0	4	51	mm	100.0	109	289
Frame#	Time	r_knee			r_shank_antsup			r_ankle			r_calc			r_5meta			r_toe			L_knee			L_shank_antsup			L_ankle			L_calc			L_5meta			L_toe			r_sh2			r_sh3			r_sh4			L_sh2			L_sh3			r_thigh1			r_thigh2			r_thigh3			r_thigh4			r_thigh5			L_thigh1			L_thigh2			L_thigh3			L_thigh4			r.ASIS			r.PSIS			L.ASIS			L.PSIS			C7			R_Shoulder			L_Shoulder			R_Sternum			L_Sternum			R_humerus			R_elbow_med			R_elbow_lat			R_forearm			R_wrist_radius			R_wrist_ulna			L_humerus			L_elbow_med			L_elbow_lat			L_forearm			L_wrist_radius			L_wrist_ulna			R_HJC			L_HJC			R_HJC_reg			L_HJC_reg			
		X1	Y1	Z1	X2	Y2	Z2	X3	Y3	Z3	X4	Y4	Z4	X5	Y5	Z5	X6	Y6	Z6	X7	Y7	Z7	X8	Y8	Z8	X9	Y9	Z9	X10	Y10	Z10	X11	Y11	Z11	X12	Y12	Z12	X13	Y13	Z13	X14	Y14	Z14	X15	Y15	Z15	X16	Y16	Z16	X17	Y17	Z17	X18	Y18	Z18	X19	Y19	Z19	X20	Y20	Z20	X21	Y21	Z21	X22	Y22	Z22	X23	Y23	Z23	X24	Y24	Z24	X25	Y25	Z25	X26	Y26	Z26	X27	Y27	Z27	X28	Y28	Z28	X29	Y29	Z29	X30	Y30	Z30	X31	Y31	Z31	X32	Y32	Z32	X33	Y33	Z33	X34	Y34	Z34	X35	Y35	Z35	X36	Y36	Z36	X37	Y37	Z37	X38	Y38	Z38	X39	Y39	Z39	X40	Y40	Z40	X41	Y41	Z41	X42	Y42	Z42	X43	Y43	Z43	X44	Y44	Z44	X45	Y45	Z45	X46	Y46	Z46	X47	Y47	Z47	X48	Y48	Z48	X49	Y49	Z49	X50	Y50	Z50	X51	Y51	Z51	

109	1.08000000	-908.99707	885.71752	-425.04955	-927.13693	801.90414	-409.60050	-1175.52658	539.88047	-433.17723	-1250.16346	542.01274	-483.96674	-1120.52883	389.77533	-397.33360	-1077.30327	390.74800	-456.64489	-841.39755	890.85211	-748.74813	-876.05135	780.44450	-768.66215	-1121.30983	555.64665	-751.45366	-1195.13172	584.40944	-710.45128	-1095.89975	387.23122	-776.47715	-1056.07544	393.69370	-714.54447	-996.09484	712.22981	-402.12232	-985.35319	848.32230	-395.30942	-1062.64642	760.82788	-396.03896	-939.44311	844.02459	-778.39931	-1013.33089	749.28314	-777.50705	-838.95713	1197.23097	-387.16411	-825.65446	1087.41092	-398.97422	-880.19736	1054.38993	-377.93510	-951.44452	1181.20988	-392.73841	-932.20410	1065.89245	-393.07547	-820.44029	1214.15871	-761.33807	-784.43363	1079.98271	-766.20320	-934.66813	1183.27410	-755.20650	-892.03163	1051.23522	-767.49891	-809.72377	1393.17414	-443.13152	-989.74836	1466.67948	-516.20928	-816.62472	1390.67023	-702.41718	-995.64176	1463.33383	-626.47256	-941.74267	1959.34173	-565.92566	-909.18760	1962.34882	-443.69745	-885.80418	1971.82296	-678.58576	-786.58955	1890.15046	-524.58290	-788.40695	1889.26748	-585.88698	-730.69210	1966.98063	-282.67522	-614.87515	1899.47171	-295.74270	-643.25205	1967.72401	-239.43681	-585.26316	2083.63422	-337.84070	-542.92508	2150.58937	-418.88114	-521.63715	2154.94065	-379.27846	-748.24656	1960.35977	-879.58801	-644.68999	1878.76573	-923.72525	-681.58985	1948.73572	-947.15909	-586.85208	2073.18356	-867.70165	-546.80359	2129.78695	-795.68152	-522.88113	2132.76563	-826.35917	-906.23940	1331.23543	-447.85061	-909.30084	1327.63338	-678.17039	-894.97370	1335.69386	-473.62146	-904.10966	1330.50998	-644.49684	
110	1.09000000	-889.85521	897.24128	-423.44031	-908.48153	813.97445	-407.82892	-1159.45199	554.80552	-432.24288	-1233.29333	559.95295	-483.50013	-1109.57471	403.24060	-396.88477	-1064.75603	400.62133	-454.58205	-826.34308	903.27448	-749.56036	-860.13848	792.68768	-769.16926	-1104.14819	566.89936	-751.72511	-1176.70172	597.35132	-710.29408	-1083.04826	396.72199	-776.71043	-1041.93654	400.52738	-715.01318	-978.36465	724.98323	-400.49847	-966.40454	861.03115	-393.90336	-1044.75618	774.87018	-394.28076	-923.84574	855.93676	-778.91240	-997.57555	760.48315	-777.67850	-824.37469	1210.25920	-386.87498	-809.94710	1100.65586	-398.14204	-863.77586	1067.06776	-377.13607	-937.10820	1192.48776	-393.10958	-915.94643	1077.66033	-392.33585	-807.79975	1227.04468	-761.90810	-770.94834	1093.15534	-766.76107	-921.77907	1195.49316	-754.94282	-878.47926	1063.76822	-767.72559	-796.85849	1406.64594	-443.18656	-977.25890	1479.27934	-516.50434	-803.95265	1403.91061	-702.75659	-982.94400	1475.91624	-626.57673	-934.13341	1971.69090	-566.19839	-902.61926	1975.13275	-444.12029	-879.77254	1984.82909	-678.52987	-778.14789	1904.36200	-525.73563	-779.87902	1903.36472	-585.52269	-728.44239	1982.35088	-278.21654	-611.14377	1916.68692	-289.80432	-641.65574	1984.67396	-234.06451	-586.55854	2100.46615	-333.93712	-546.14016	2167.16860	-416.12469	-524.64729	2172.40262	-376.65049	-747.58720	1976.95522	-883.83597	-642.78881	1897.27220	-929.44389	-681.21465	1966.91081	-951.24519	-587.41232	2091.61452	-870.90650	-547.62873	2147.71966	-798.97974	-523.99093	2151.63701	-829.74348	-893.12919	1344.27989	-447.98301	-896.25410	1340.51111	-678.29900	-882.07796	1348.53490	-473.85331	-890.92132	1343.30570	-644.93632	
111	1.10000000	-870.66889	907.91827	-422.35848	-889.40786	825.07674	-406.69751	-1143.12995	568.45281	-432.13122	-1216.21602	574.64494	-484.23084	-1096.10665	416.60313	-395.43629	-1049.80418	411.43898	-451.79159	-811.52522	914.95357	-750.32918	-844.51040	803.89725	-769.40145	-1087.03392	576.72627	-751.65547	-1159.30115	607.31230	-709.99039	-1066.86409	405.61794	-776.23099	-1025.09654	408.50046	-715.24328	-960.11213	736.73385	-399.39809	-946.88093	872.63526	-392.45088	-1026.20203	787.70285	-392.80760	-908.56469	866.77476	-779.45312	-981.98306	770.55036	-777.95488	-810.02062	1222.04672	-386.98406	-794.26204	1112.80585	-397.49505	-847.26923	1078.74902	-376.17780	-922.51640	1202.65023	-393.27422	-899.64839	1088.15140	-391.54667	-794.88516	1238.99816	-761.73205	-757.17811	1105.54905	-766.85109	-908.64455	1206.86934	-755.07391	-864.48363	1075.49397	-768.00886	-784.23641	1418.87233	-443.22430	-965.25666	1490.43085	-516.94120	-791.53715	1416.21312	-703.24448	-970.26451	1487.10523	-626.20033	-926.33417	1983.19312	-566.58048	-895.42858	1987.18671	-444.20416	-872.82295	1996.89812	-678.79997	-769.62213	1917.41758	-526.44076	-771.18792	1916.39039	-585.01676	-725.65938	1996.26149	-273.54135	-607.31969	1932.14446	-282.58031	-639.95110	1999.87264	-228.03888	-587.09362	2115.09659	-329.60817	-548.26004	2181.19510	-412.78317	-526.65563	2187.32961	-373.55567	-746.25327	1991.44379	-887.93323	-640.89239	1913.84973	-935.45352	-680.64642	1983.05813	-956.03578	-587.12863	2108.10770	-874.43827	-547.42096	2163.45459	-802.87620	-524.05777	2168.09644	-834.01600	-880.10638	1355.89442	-448.19787	-883.30146	1352.27214	-678.51514	-869.68499	1360.00172	-474.45383	-877.52711	1354.78164	-645.88036	
112	1.11000000	-852.22712	918.07678	-422.04203	-870.78126	835.74729	-406.15699	-1126.00197	579.83791	-432.75305	-1198.42148	585.26997	-485.93402	-1079.62878	428.77828	-392.91285	-1032.09167	422.27810	-448.18130	-797.28264	925.76317	-750.93553	-829.33018	814.12829	-769.70198	-1069.99810	584.94922	-751.11167	-1142.72033	614.26270	-709.19673	-1047.43949	413.81289	-775.48798	-1005.22991	417.00689	-715.33739	-941.66543	747.57514	-398.45741	-927.96165	883.33630	-391.31917	-1007.20561	798.23517	-391.89577	-893.97958	876.35502	-779.88400	-966.57595	779.46946	-778.21327	-795.82142	1232.89613	-387.10303	-778.58524	1123.89099	-396.99196	-831.14166	1089.25573	-375.28010	-907.66084	1212.19214	-393.04070	-883.69593	1097.85402	-390.94318	-781.60631	1250.14718	-761.35673	-743.27994	1116.95164	-766.60193	-895.22473	1217.50661	-755.49228	-850.27304	1086.33266	-768.26116	-771.76645	1429.94858	-443.35508	-953.40730	1499.86142	-517.75114	-779.29575	1427.57833	-703.69805	-957.44455	1496.74130	-625.24082	-918.38902	1993.87266	-566.95316	-887.67402	1998.30058	-444.37622	-865.27233	2008.23854	-679.66148	-760.78013	1929.50273	-527.68816	-762.56269	1928.31048	-585.05127	-722.48047	2008.85807	-268.77202	-603.08925	1945.84207	-274.56250	-638.11098	2013.49926	-221.43104	-586.98893	2127.70486	-324.75736	-549.29122	2192.83495	-408.91368	-527.66618	2199.98272	-370.15952	-744.19943	2004.16595	-891.34147	-639.06040	1928.58165	-941.59805	-679.99619	1997.26563	-961.28218	-586.09507	2122.54030	-878.91702	-546.25010	2177.09202	-807.52269	-523.21259	2182.45459	-839.22753	-866.91363	1366.03055	-448.48279	-870.17818	1362.80165	-678.80501	-857.37130	1369.99696	-475.40063	-863.80286	1365.01538	-647.10845	
